<svg xmlns="http://www.w3.org/2000/svg" viewBox="0 0 820 300" fill="none" role="img" aria-label="Travelers Supply Exchange">
  <defs>
    <clipPath id="h-clip-top">
      <rect x="315" y="70" width="190" height="190" rx="26" transform="rotate(45 410 165)"/>
    </clipPath>
    <clipPath id="h-clip-left">
      <rect x="155" y="235" width="190" height="190" rx="26" transform="rotate(45 250 330)"/>
    </clipPath>
    <clipPath id="h-clip-right">
      <rect x="475" y="235" width="190" height="190" rx="26" transform="rotate(45 570 330)"/>
    </clipPath>
    <clipPath id="h-clip-bottom">
      <rect x="315" y="384" width="190" height="190" rx="26" transform="rotate(45 410 479)"/>
    </clipPath>
    <clipPath id="h-clip-globe">
      <circle cx="410" cy="479" r="40"/>
    </clipPath>
    <style>
      .wordmark {
        font-family: "Arial Black", "Helvetica Neue", Helvetica, Arial, sans-serif;
        font-weight: 900;
        text-anchor: start;
      }
      .travelers, .exchange { fill: #012F61; }
      .supply { fill: #317E4A; }
    </style>
  </defs>

  <g transform="translate(118 150) scale(0.52) translate(-410 -322)">
    <rect x="315" y="70" width="190" height="190" rx="26" transform="rotate(45 410 165)" fill="#398CD8"/>
    <rect x="155" y="235" width="190" height="190" rx="26" transform="rotate(45 250 330)" fill="#012F61"/>
    <rect x="475" y="235" width="190" height="190" rx="26" transform="rotate(45 570 330)" fill="#012F61"/>
    <rect x="315" y="384" width="190" height="190" rx="26" transform="rotate(45 410 479)" fill="#317E4A"/>

    <g clip-path="url(#h-clip-top)">
      <g transform="translate(410 165)">
        <path fill="#FFFFFF" d="M-28 6 L-14 6 L-14 -18 Q-14 -26 0 -26 Q14 -26 14 -18 L14 6 L28 6 Q32 6 32 10 L32 42 Q32 46 28 46 L-28 46 Q-32 46 -32 42 L-32 10 Q-32 6 -28 6 Z"/>
        <rect x="-9" y="-22" width="18" height="11" rx="4" fill="#398CD8"/>
        <rect x="-20" y="12" width="8" height="28" rx="4" fill="#398CD8"/>
        <rect x="-4" y="12" width="8" height="28" rx="4" fill="#398CD8"/>
        <rect x="12" y="12" width="8" height="28" rx="4" fill="#398CD8"/>
        <rect x="-30" y="38" width="12" height="8" rx="4" fill="#FFFFFF"/>
        <rect x="18" y="38" width="12" height="8" rx="4" fill="#FFFFFF"/>
      </g>
    </g>

    <g clip-path="url(#h-clip-left)">
      <path fill="#FFFFFF" transform="translate(250 330)" d="M-58 0 L-40 -16 L-40 -7 L40 -7 L40 -16 L58 0 L40 16 L40 7 L-40 7 L-40 16 Z"/>
    </g>

    <g clip-path="url(#h-clip-right)">
      <g transform="translate(570 330)">
        <path d="M-12 -36 C-12 -48 12 -48 12 -36" stroke="#FFFFFF" stroke-width="7" stroke-linecap="round" fill="none"/>
        <path d="M-34 2 C-34 -14 -18 -20 0 -20 C18 -20 34 -14 34 2 V16 H-34 Z" fill="#FFFFFF"/>
        <rect x="-7" y="6" width="14" height="11" rx="2.5" fill="#FFFFFF"/>
        <rect x="-26" y="18" width="52" height="30" rx="8" fill="none" stroke="#FFFFFF" stroke-width="6"/>
      </g>
    </g>

    <g clip-path="url(#h-clip-bottom)">
      <g clip-path="url(#h-clip-globe)">
        <circle cx="410" cy="479" r="40" stroke="#FFFFFF" stroke-width="5" fill="none"/>
        <ellipse cx="410" cy="479" rx="16" ry="40" stroke="#FFFFFF" stroke-width="4" fill="none"/>
        <ellipse cx="410" cy="479" rx="40" ry="16" stroke="#FFFFFF" stroke-width="4" fill="none"/>
        <line x1="410" y1="439" x2="410" y2="519" stroke="#FFFFFF" stroke-width="4"/>
        <line x1="370" y1="479" x2="450" y2="479" stroke="#FFFFFF" stroke-width="4"/>
      </g>
    </g>
  </g>

  <line x1="232" y1="52" x2="232" y2="248" stroke="#012F61" stroke-opacity="0.18" stroke-width="2"/>

  <text class="wordmark travelers" x="252" y="108" font-size="52" letter-spacing="3.8">TRAVELERS</text>
  <text class="wordmark supply" x="252" y="158" font-size="38" letter-spacing="2.6">&#8212; SUPPLY &#8212;</text>
  <text class="wordmark exchange" x="252" y="218" font-size="52" letter-spacing="3.8">EXCHANGE</text>
</svg>
